<svg id="Layer_1" data-name="Layer 1" xmlns="http://www.w3.org/2000/svg" viewBox="0 0 1209.67 341.45"><path d="M490.59,455.6q12.92-12.08,21.91-19a127.16,127.16,0,0,1,17.41-11.38h14.32a84.05,84.05,0,0,0-16,7A183.37,183.37,0,0,0,509.69,444a147.19,147.19,0,0,0-16.85,13.9,237.4,237.4,0,0,0-27.24,35Q453.24,512,441.45,532.4t-25,39.87a232.89,232.89,0,0,1-29.76,35.8,133.87,133.87,0,0,1-48.44,30q-27.94,10.11-61.64,10.11-27.24,0-49.7-8.57t-35.8-26.11Q177.78,596,177.78,569.6a68.17,68.17,0,0,1,8.71-33.83,86.09,86.09,0,0,1,24.43-27.24,120.57,120.57,0,0,1,36.92-18.11A158,158,0,0,1,294,484q40.16,0,69.36,12.78T408.46,533q15.85,23.44,15.86,55.46a91.14,91.14,0,0,1-11.23,44.79q-11.23,20.35-31.87,35.24t-48.58,23q-27.94,8.14-61.63,8.15-33.13,0-61.5-10A157.22,157.22,0,0,1,160,661.85a128.84,128.84,0,0,1-33-41.56,114.06,114.06,0,0,1-11.8-51.53,106.85,106.85,0,0,1,12.64-51,133.55,133.55,0,0,1,35.1-41.7A171.16,171.16,0,0,1,214.85,448a194.35,194.35,0,0,1,63.46-10.11q33.13,0,58,9.83t38.89,27.09q14,17.28,14,40.3a67.28,67.28,0,0,1-8.42,33,85.78,85.78,0,0,1-23.45,26.82,115.08,115.08,0,0,1-35,18,139.42,139.42,0,0,1-43.24,6.46q-25.56,0-40-8.14T224.68,569a30.3,30.3,0,0,1,8-20.78q8-9,22.32-13.9t33.14-4.91q24.14,0,39,11.51l-2,2.25q-13.47-11-37.06-11-18,0-31.59,4.63t-21.34,12.92A27.28,27.28,0,0,0,227.48,569q0,12.93,13.9,20.22t37.77,7.3a138.35,138.35,0,0,0,42-6.18,111.23,111.23,0,0,0,34.12-17.27,83.41,83.41,0,0,0,22.88-26,64.79,64.79,0,0,0,8.29-32,59.72,59.72,0,0,0-13.62-38.89q-13.62-16.71-37.91-26.12t-56.58-9.4a191.58,191.58,0,0,0-62.34,10q-29.21,10-51.1,27.51a132.65,132.65,0,0,0-34.4,40.72A103.38,103.38,0,0,0,118,568.76,111,111,0,0,0,129.62,619a127.39,127.39,0,0,0,32.58,40.85,153.53,153.53,0,0,0,48.72,27.24q27.79,9.69,60.09,9.69,32.85,0,60.51-8t47.74-22.46q20.07-14.46,31.16-34.26a87.72,87.72,0,0,0,11.1-43.66q0-31.44-15.59-54.2t-44.08-35.1Q333.33,486.78,294,486.77A156.6,156.6,0,0,0,249,493a116.79,116.79,0,0,0-36.08,17.55A83.64,83.64,0,0,0,189,536.89a65.84,65.84,0,0,0-8.42,32.71q0,21.35,11.79,35.67t32.3,21.48q20.49,7.15,46.89,7.16a122.89,122.89,0,0,0,49-9.83A179.57,179.57,0,0,0,363.39,598a324.21,324.21,0,0,0,37.49-36.09Q418.43,542.1,434,522t29.63-37.63A222.45,222.45,0,0,1,490.59,455.6ZM328,511.48q-30.61,0-49.84-9.69t-28.36-25a61.29,61.29,0,0,1-9.13-31.87,65,65,0,0,1,8.43-31.45q8.41-15.44,24.57-27.94t39.87-19.94q23.73-7.43,54.05-7.44a120.65,120.65,0,0,1,34,4.92,217.63,217.63,0,0,1,33,12.63q16.15,7.73,30.89,16.29t27.24,16.15q12.49,7.58,22.18,12.35t15.87,4.77v3.09q-7.86.28-20.22-6.32t-28.08-16.28q-15.74-9.69-34.12-19.38a254.22,254.22,0,0,0-38.19-16.28,125.71,125.71,0,0,0-40-6.6,184.24,184.24,0,0,0-49.28,6.32q-22.89,6.31-40,17.83t-26.68,26.81a61.19,61.19,0,0,0-9.55,33q0,18.53,10.39,32.29t29.35,21.48Q303.3,509,328.29,509q20.77,0,37.77-7.44t27.1-19.94a43,43,0,0,0,10.1-27.65,35,35,0,0,0-5.19-19,29.09,29.09,0,0,0-15-11.93l1.68-2.25a35.37,35.37,0,0,1,16,13.06,35.81,35.81,0,0,1,5.61,20.08A45.53,45.53,0,0,1,396,483q-10.38,13-28.22,20.78T328,511.48Zm349.88-81.71q-19.95,1.68-42,10.67a292.51,292.51,0,0,0-44.51,23,458.5,458.5,0,0,0-43.8,31.17q-21.35,17.13-39.88,35.1a469.73,469.73,0,0,0-32.57,34.68q-14,16.71-21.9,29.91t-7.87,20.77c0,.38.1.57.29.57.56,0,1.72-1.22,3.51-3.65s3.74-5.29,5.89-8.57,4.17-6.32,6-9.12A114.68,114.68,0,0,0,475.43,563q4.77-16.71,8.28-34.4t8.57-35.52A156.09,156.09,0,0,1,507,458.27q9.69-17,26.82-31.87l3.37.84q-9,5.89-15.87,18.67a198.32,198.32,0,0,0-12.78,30.19q-5.9,17.41-11.65,36.78t-12.35,38.61a300.33,300.33,0,0,1-14.89,36,114.14,114.14,0,0,1-19.23,28.22q-7,7-9,7a1.74,1.74,0,0,1-2-2q0-8.43,8-22.6t22.32-31.73a455.81,455.81,0,0,1,33.28-36.23Q522,511.49,544,493.79a465.92,465.92,0,0,1,44.92-32.15,297.26,297.26,0,0,1,45.77-23.73q22.75-9.27,43.25-11,31.73-3.37,46.75-5.9t15-7.86c0-.94-1-1.83-2.95-2.67a19.87,19.87,0,0,0-7.72-1.26q-19.37,0-39.45,9.26a211.89,211.89,0,0,0-39.73,24.29A454.49,454.49,0,0,0,612.18,475q-18,17.13-33.7,33.13-15.15,16.29-29.62,34.68A370.59,370.59,0,0,0,523,580a223.46,223.46,0,0,0-18.12,36.79q-6.74,18-6.73,33.7,0,14.6,6.31,23.16a20.32,20.32,0,0,0,17.27,8.57,30.86,30.86,0,0,0,19.94-7.31l.84,2A29.7,29.7,0,0,1,521.48,685q-14,0-23.16-11.09t-9.13-28.22q0-14.88,7-31.87a210.78,210.78,0,0,1,18.25-34.26,402.53,402.53,0,0,1,24.29-33.41q13.07-16.14,25.41-29.49t21.34-22Q599.82,481.16,617,466t35.81-28.78A213,213,0,0,1,690.38,415q19-8.55,36.93-8.56a52.14,52.14,0,0,1,14.46,1.69c3.83,1.12,5.76,2.71,5.76,4.77,0,2.81-2.07,5.15-6.18,7S730.12,423.5,720,425,695.86,428.08,677.89,429.77Z" transform="translate(-115.16 -358.16)" fill="#fff"/><path d="M567,627.73q9.27,0,21.62-5.9a145.38,145.38,0,0,0,25.55-16,174.83,174.83,0,0,0,24.43-22.75l3.37-3.65h2.81l-2.53,2.81a194.41,194.41,0,0,1-25.69,24,146.25,146.25,0,0,1-27,17q-13.05,6.16-22.6,6.18a14.43,14.43,0,0,1-11.65-5.2Q551,619,551,610t5.34-18.81A93.42,93.42,0,0,1,570.48,572a121.13,121.13,0,0,1,19.94-17,111.42,111.42,0,0,1,22.74-12.07,62.11,62.11,0,0,1,22.32-4.49,13.06,13.06,0,0,1,7.59,2,6,6,0,0,1,2.8,5.06q0,5.89-6.6,12.35a75.57,75.57,0,0,1-17,12.08,123.25,123.25,0,0,1-22.19,9.26,75.76,75.76,0,0,1-22.46,3.65l2.53-2.52a86.38,86.38,0,0,0,20.91-3.94,98.54,98.54,0,0,0,20.08-8.7,72.51,72.51,0,0,0,15.17-11.23q5.89-5.89,5.89-10.95,0-4.5-5.89-4.5-6.75,0-16.71,5.9A142.54,142.54,0,0,0,599,562,192.89,192.89,0,0,0,579,582.1a140.13,140.13,0,0,0-15,20.78q-5.74,10-5.76,17Q558.26,627.73,567,627.73Z" transform="translate(-115.16 -358.16)" fill="#fff"/><path d="M635.48,628.85q-9.27,0-9.26-14.32,0-9.54,5.61-20.21A91.65,91.65,0,0,1,647,573.68a137.86,137.86,0,0,1,21.34-18.12,115,115,0,0,1,24.28-12.91,66.6,66.6,0,0,1,23.73-4.78q9.54,0,9.55,7.31,0,6.74-8.71,17.26t-21.9,24.29q-10.39,10.68-21.9,20.36a175.06,175.06,0,0,1-21.48,15.73Q641.93,628.85,635.48,628.85Zm.28-2q5.34,0,14.46-5.34a158.6,158.6,0,0,0,20.5-14.74,298.3,298.3,0,0,0,23.17-21.48q13.2-13.76,21.34-23.73t8.14-16.14c0-3.18-2.06-4.78-6.18-4.78q-5.61,0-14.18,4.5a127.73,127.73,0,0,0-18.25,11.93,251.53,251.53,0,0,0-19.23,16.43,223.6,223.6,0,0,0-17.41,18.25,131.47,131.47,0,0,0-12.64,17.27q-4.77,8-4.77,13.34Q630.71,626.89,635.76,626.89Zm114-47.46-2.53,2.81a286.45,286.45,0,0,1-23.45,24,156.21,156.21,0,0,1-21.9,17q-10,6.16-15.86,6.18a7.53,7.53,0,0,1-5.48-2.39,8.18,8.18,0,0,1-2.39-6q0-9.54,10.39-25.55t28.93-35.1h1.4l16.85-18.53h21.62a77.29,77.29,0,0,0-10.39,7,113.72,113.72,0,0,0-10.11,9q-20.77,20.79-32.71,33.28t-17,19.51q-5.05,7-5.06,11.51,0,5.63,4.5,5.62,5.05,0,14-5.76A168.09,168.09,0,0,0,721,606.11a280.06,280.06,0,0,0,22.88-23l3.09-3.65Z" transform="translate(-115.16 -358.16)" fill="#fff"/><path d="M737.41,629.42q-9.82,0-9.83-11,0-17.12,19.38-39l175.22-198h23q-5.9,2.8-17.83,13.62T900,421.9q-15.43,16-32.29,34.82L763,574.94Q746.4,593.75,739.8,604t-6.6,17.27q0,6.47,5,6.46,9.56,0,26-11.93t34.68-32.72l3.08-3.65h2.81l-2.53,2.81q-19.93,22.74-36.64,35T737.41,629.42Z" transform="translate(-115.16 -358.16)" fill="#fff"/><path d="M917.12,671.54q14.88,0,32.15-5.62a187.67,187.67,0,0,0,35.52-16.15,270.79,270.79,0,0,0,36-25,310.83,310.83,0,0,0,33.69-32.15l11.8-13.2H1069l-12.36,13.76a302.27,302.27,0,0,1-34.54,33.14A288.87,288.87,0,0,1,985.36,652a198,198,0,0,1-36,16.71q-17.42,5.89-32.29,5.89-22.47,0-39.45-8.28t-26.25-23.17q-9.27-14.88-9.27-34.81A84.74,84.74,0,0,1,852.4,568.2a120.84,120.84,0,0,1,27.8-34.68,136.86,136.86,0,0,1,39.87-24.15,124.43,124.43,0,0,1,46.19-8.84q12.65,0,19.52,2.53t6.88,7.3c0,2.06-1.13,3.84-3.37,5.33a14.34,14.34,0,0,1-8.15,2.25q-11.5,0-18.81-9.41T955,484.24a61.19,61.19,0,0,1,8.42-30.75A94.54,94.54,0,0,1,986.2,427.1a113.28,113.28,0,0,1,32.57-18.39,108.41,108.41,0,0,1,37.91-6.74q46.89,0,46.89,42.68,0,14-5.75,30.33a178.47,178.47,0,0,1-15.59,32.57,224.62,224.62,0,0,1-22.6,31A236,236,0,0,1,1033,565a137.4,137.4,0,0,1-27.66,18.39q-13.75,6.75-25.83,6.74t-19.24-8.28q-7.15-8.28-7.16-22.32,0-12.36,6.46-27a162.71,162.71,0,0,1,17-29.2,193.32,193.32,0,0,1,23.31-26.82A132.52,132.52,0,0,1,1025.37,457q12.78-7.29,23.45-7.3,12.06,0,12.07,13.76,0,13.49-9.4,28.64t-25.56,30.19a264,264,0,0,1-37.06,28.5,327.24,327.24,0,0,1-44.23,23.87,296.4,296.4,0,0,1-46.75,16.43,178.92,178.92,0,0,1-44.51,6q-27.79,0-49.7-8.84t-34.54-24a52.48,52.48,0,0,1-12.64-34.54,55,55,0,0,1,9.41-31q9.42-14.18,26.26-24.85t39.73-16.42A205.08,205.08,0,0,1,882,451.67,249,249,0,0,1,921.9,455a362.54,362.54,0,0,1,41,9.12,293.9,293.9,0,0,1,38.05,13.62,223.29,223.29,0,0,1,31.45,16.71q13.62,8.85,20.92,18.39l-2,1.69q-7-9.27-20.35-18.11A195.34,195.34,0,0,0,1000,480a324.51,324.51,0,0,0-37.63-13.34,332.68,332.68,0,0,0-40.43-9,254.91,254.91,0,0,0-39.6-3.23,202.66,202.66,0,0,0-49.14,5.61q-22.47,5.63-38.89,15.73t-25.55,24a54.39,54.39,0,0,0-9.13,30.46A49.37,49.37,0,0,0,771.81,563q12.21,14.46,33.55,22.74t48,8.28a176.82,176.82,0,0,0,43.81-5.89,290.22,290.22,0,0,0,46-16.15,333.77,333.77,0,0,0,43.52-23.3,260.7,260.7,0,0,0,36.5-27.8q16-14.75,25.28-29.49t9.26-27.94q0-10.95-9-10.95-10.11,0-22.61,7.3a134.78,134.78,0,0,0-24.85,19.1A183.4,183.4,0,0,0,978.76,505a161,161,0,0,0-16.57,28.64q-6.32,14.33-6.32,26.12,0,12.36,6.46,19.93a21.06,21.06,0,0,0,16.85,7.59q11.79,0,25.41-6.6a134,134,0,0,0,27.24-18,218.26,218.26,0,0,0,26-25.84,230.21,230.21,0,0,0,22-30.47,174.26,174.26,0,0,0,15.3-31.87,89.83,89.83,0,0,0,5.62-29.9q0-19.65-10.11-29.77t-29.77-10.1a86.5,86.5,0,0,0-34.82,7.58,117.87,117.87,0,0,0-31.59,20.21,108.37,108.37,0,0,0-22.74,27.94q-8.57,15.32-8.57,30.75,0,23.88,18.26,23.87a13,13,0,0,0,5.89-1.26c1.69-.85,2.53-1.92,2.53-3.23q0-3.09-6-5.2a45.21,45.21,0,0,0-14.74-2.1,79.32,79.32,0,0,0-31.45,6.6,114.59,114.59,0,0,0-29.06,18.11,135.15,135.15,0,0,0-24,26.53,131.66,131.66,0,0,0-16.29,32.15,106.33,106.33,0,0,0-5.89,34.82Q862.37,671.53,917.12,671.54Z" transform="translate(-115.16 -358.16)" fill="#fff"/><path d="M1059.77,628.85q-9.27,0-9.27-14.32,0-9.54,5.62-20.21a91.59,91.59,0,0,1,15.16-20.64,138.33,138.33,0,0,1,21.34-18.12,115.1,115.1,0,0,1,24.29-12.91,66.6,66.6,0,0,1,23.73-4.78q9.54,0,9.54,7.31,0,6.74-8.7,17.26t-21.9,24.29q-10.39,10.68-21.91,20.36a173.55,173.55,0,0,1-21.48,15.73Q1066.23,628.85,1059.77,628.85Zm.28-2q5.34,0,14.46-5.34a159.29,159.29,0,0,0,20.5-14.74,298.24,298.24,0,0,0,23.16-21.48q13.2-13.76,21.34-23.73t8.15-16.14c0-3.18-2.07-4.78-6.18-4.78q-5.62,0-14.18,4.5a127.18,127.18,0,0,0-18.25,11.93,251.64,251.64,0,0,0-19.24,16.43,225.32,225.32,0,0,0-17.41,18.25,130.41,130.41,0,0,0-12.63,17.27q-4.79,8-4.78,13.34Q1055,626.89,1060.05,626.89Zm114-47.46-2.53,2.81a286.38,286.38,0,0,1-23.44,24,156.21,156.21,0,0,1-21.9,17q-10,6.16-15.87,6.18a7.55,7.55,0,0,1-5.48-2.39,8.18,8.18,0,0,1-2.38-6q0-9.54,10.39-25.55t28.92-35.1h1.4L1160,541.81h21.62a77.93,77.93,0,0,0-10.39,7,116.6,116.6,0,0,0-10.11,9q-20.78,20.79-32.71,33.28t-17,19.51q-5.06,7-5,11.51,0,5.63,4.49,5.62,5.06,0,14-5.76a167.32,167.32,0,0,0,20.36-15.86,280.12,280.12,0,0,0,22.89-23l3.08-3.65Z" transform="translate(-115.16 -358.16)" fill="#fff"/><path d="M1243.41,582.24q-15.45,17.13-32,26.54t-32.58,9.4a82.38,82.38,0,0,0-20.21,2.11q-8.14,2.1-8.15,5.48c0,1.3,1.13,2,3.37,2a43.69,43.69,0,0,0,22.19-6.18A73,73,0,0,0,1195.39,605a83.43,83.43,0,0,0,13.76-23.31,71.85,71.85,0,0,0,5-26.4,72.29,72.29,0,0,1,1.27-14.32,41.23,41.23,0,0,1,5.33-12.91q4.07-6.75,12.78-15.73l15.44-8.7q-10.11,7.58-15.58,12.49a39.9,39.9,0,0,0-7.72,8.71,15.92,15.92,0,0,0-2.25,8.28,68.62,68.62,0,0,0,1.69,12.78,83.8,83.8,0,0,1,1.68,16.7,51.38,51.38,0,0,1-6.32,24.29,78.45,78.45,0,0,1-16.85,21.49,89.11,89.11,0,0,1-23.3,15.3,62.78,62.78,0,0,1-26,5.76q-5.9,0-5.89-3.65,0-3.93,8.7-6.74t21.34-2.81q31.17,0,61.22-33.14l3.37-3.65h2.8Zm-69.36-2.81h-2.81l3.37-3.65q25.83-28.35,41.7-46.61t20.92-25.55h12.07q-11.22,8.42-27.79,25.13T1177.7,575.5Z" transform="translate(-115.16 -358.16)" fill="#fff"/><path d="M1245.93,627.73q9.27,0,21.63-5.9a145.75,145.75,0,0,0,25.55-16,174.83,174.83,0,0,0,24.43-22.75l3.37-3.65h2.81l-2.53,2.81a195,195,0,0,1-25.69,24,146.59,146.59,0,0,1-27,17q-13.07,6.16-22.61,6.18a14.46,14.46,0,0,1-11.65-5.2q-4.35-5.19-4.35-14.18t5.33-18.81A93.79,93.79,0,0,1,1249.44,572a121.13,121.13,0,0,1,19.94-17,111.49,111.49,0,0,1,22.75-12.07,62,62,0,0,1,22.32-4.49,13,13,0,0,1,7.58,2,6,6,0,0,1,2.81,5.06q0,5.89-6.6,12.35a75.65,75.65,0,0,1-17,12.08,123.15,123.15,0,0,1-22.18,9.26,75.77,75.77,0,0,1-22.47,3.65l2.53-2.52a86.54,86.54,0,0,0,20.92-3.94,98.78,98.78,0,0,0,20.08-8.7,72.17,72.17,0,0,0,15.16-11.23q5.89-5.89,5.9-10.95,0-4.5-5.9-4.5-6.74,0-16.71,5.9A143,143,0,0,0,1278,562,192.89,192.89,0,0,0,1258,582.1a139.41,139.41,0,0,0-15,20.78q-5.76,10-5.76,17Q1237.23,627.73,1245.93,627.73Z" transform="translate(-115.16 -358.16)" fill="#fff"/></svg>